#!OML:ASF H:\Terrain\Patient Classification 1\Takeo\Monday\TakeoMonday.ASF
:FULLY-SPECIFIED
:DEGREES
489
root 8.44531 11.0716 -1.55204 24.5595 25.9425 8.99041
lowerback 41.55 -3.15482 12.2495
upperback 19.5701 1.51589 3.84735
thorax 2.509 1.79594 -2.50695
lowerneck -19.8617 -10.6126 -7.29394
upperneck -12.5991 -12.6803 3.38916
head -0.187932 -6.11675 1.50933
rclavicle 9.22361e-014 -2.20651e-014
rhumerus 58.1483 -6.98192 -34.417
rradius 35.7622
rwrist 0.367792
rhand -39.7548 42.847
rfingers 7.12502
rthumb -12.7314 13.2551
lclavicle 9.22361e-014 -2.20651e-014
lhumerus -15.9087 -8.79448 95.0675
lradius 66.5216
lwrist 33.1286
lhand -28.2761 9.31183
lfingers 7.12502
lthumb -1.65256 39.2852
rfemur -98.6069 -18.9476 16.7783
rtibia 115.515
rfoot -34.4624 -11.9765
rtoes -0.47623
lfemur -85.9706 -7.26404 -30.8058
ltibia 117.238
lfoot -38.1581 16.3313
ltoes -11.3002
490
root 8.45905 11.1407 -1.55265 24.4574 25.8618 8.74417
lowerback 41.8251 -3.3305 12.6143
upperback 19.0025 1.47455 3.36025
thorax 1.82128 1.77796 -3.20402
lowerneck -18.9352 -10.3507 -6.59004
upperneck -12.872 -12.5449 3.51874
head -0.455073 -6.08139 1.5016
rclavicle -4.13472e-014 4.81059e-014
rhumerus 57.4451 -6.49608 -35.086
rradius 36.3775
rwrist 0.696492
rhand -39.3407 43.0285
rfingers 7.12502
rthumb -12.3321 13.4121
lclavicle -4.13472e-014 4.81059e-014
lhumerus -16.7914 -9.1401 94.3204
lradius 66.7197
lwrist 33.2601
lhand -28.3816 10.5119
lfingers 7.12502
lthumb -1.75449 40.4844
rfemur -98.1105 -18.604 16.7295
rtibia 114.887
rfoot -34.3272 -12.1459
rtoes -1.36999
lfemur -85.5827 -7.10864 -30.4299
ltibia 116.629
lfoot -38.7462 14.9498
ltoes -8.20604
491
root 8.4771 11.2113 -1.54127 24.0984 25.5685 8.51201
lowerback 42.4411 -3.43141 12.862
upperback 18.5183 1.52902 2.86936
thorax 1.14062 1.7977 -3.87272
lowerneck -18.5528 -10.1548 -5.89333
upperneck -12.7493 -12.4398 3.52323
head -0.515417 -6.06221 1.41482
rclavicle -3.18055e-014 -1.19271e-014
rhumerus 56.8171 -6.23449 -35.63
rradius 36.9033
rwrist 0.575046
rhand -39.3371 43.9695
rfingers 7.12502
rthumb -12.3287 14.353
lclavicle -3.18055e-014 -1.19271e-014
lhumerus -17.6459 -9.46952 93.6785
lradius 67.0608
lwrist 33.2096
lhand -28.5737 9.68459
lfingers 7.12502
lthumb -1.93997 39.6555
rfemur -97.292 -18.1105 16.4918
rtibia 114.231
rfoot -33.9728 -12.3003
rtoes -3.07885
lfemur -84.8653 -6.76204 -30.3899
ltibia 116.031
lfoot -38.7499 15.4086
ltoes -9.76504
492
root 8.51442 11.325 -1.52565 23.3207 24.9373 8.46616
lowerback 43.3545 -3.5526 11.9488
upperback 18.7252 1.20605 3.10194
thorax 1.03124 1.56164 -3.05969
lowerneck -19.7007 -10.1549 -7.51439
upperneck -12.2865 -12.0013 3.83558
head -0.0820588 -5.75746 1.73637
rclavicle 0 -3.18055e-014
rhumerus 58.2344 -5.5812 -34.7692
rradius 37.6381
rwrist -0.0983182
rhand -39.2724 44.6321
rfingers 7.12502
rthumb -12.2663 15.0118
lclavicle 0 -3.18055e-014
lhumerus -17.2877 -7.59909 94.4127
lradius 67.1212
lwrist 32.8908
lhand -28.6421 8.90082
lfingers 7.12502
lthumb -2.00609 38.8711
rfemur -95.5793 -17.5965 15.8426
rtibia 113.243
rfoot -33.9055 -12.4499
rtoes -2.97829
lfemur -83.1427 -6.16245 -30.9865
ltibia 115.179
lfoot -38.0129 17.6238
ltoes -15.1133
493
root 8.53147 11.4274 -1.53302 23.3558 24.8553 8.07359
lowerback 43.0914 -3.62947 11.8295
upperback 18.5942 1.03616 3.24133
thorax 0.92359 1.44045 -2.80336
lowerneck -19.9463 -10.179 -8.51466
upperneck -11.9638 -11.7799 4.40256
head 0.161778 -5.59762 2.08086
rclavicle -2.8625e-014 4.81059e-014
rhumerus 58.7005 -4.99892 -34.4164
rradius 38.3851
rwrist -0.0993638
rhand -39.2336 44.4966
rfingers 7.12502
rthumb -12.2289 14.8741
lclavicle -2.8625e-014 4.81059e-014
lhumerus -17.3909 -6.70215 94.6432
lradius 67.194
lwrist 32.6944
lhand -28.5528 9.6184
lfingers 7.12502
lthumb -1.9198 39.5895
rfemur -95.1209 -17.272 16.1803
rtibia 112.234
rfoot -33.5961 -12.9971
rtoes -2.75724
lfemur -82.8424 -5.87182 -30.7445
ltibia 114.356
lfoot -37.3852 18.0331
ltoes -16.7226
494
root 8.53926 11.4919 -1.53433 23.168 24.9225 7.56538
lowerback 43.2182 -3.80885 12.2495
upperback 18.061 1.00252 3.01743
thorax 0.316033 1.40893 -3.24341
lowerneck -19.0999 -10.0531 -8.4674
upperneck -11.9767 -11.6983 4.68864
head 0.0447497 -5.56425 2.20812
rclavicle 1.04958e-013 9.10434e-014
rhumerus 58.1387 -4.38696 -34.5258
rradius 39.1281
rwrist -0.196985
rhand -39.237 43.858
rfingers 7.12502
rthumb -12.2322 14.2357
lclavicle 1.04958e-013 9.10434e-014
lhumerus -18.2656 -6.71198 94.2011
lradius 67.4861
lwrist 32.6131
lhand -28.1742 10.0243
lfingers 7.12502
lthumb -1.55413 39.9984
rfemur -94.6285 -16.838 16.4343
rtibia 111.553
rfoot -33.1501 -13.2627
rtoes -3.99037
lfemur -82.5867 -5.57289 -30.2429
ltibia 113.79
lfoot -37.6116 17.2697
ltoes -15.4512
495
root 8.55418 11.5748 -1.53676 22.809 24.7084 7.49652
lowerback 43.9419 -3.95953 12.8118
upperback 17.2216 1.13075 2.25398
thorax -0.755511 1.4628 -4.3833
lowerneck -17.5029 -9.84683 -6.93144
upperneck -12.262 -11.8758 4.29008
head -0.407988 -5.73608 1.89067
rclavicle -1.59028e-014 2.50469e-014
rhumerus 56.4772 -3.91556 -35.1266
rradius 39.7828
rwrist -0.229197
rhand -39.2921 42.8213
rfingers 7.12502
rthumb -12.2853 13.2021
lclavicle -1.59028e-014 2.50469e-014
lhumerus -19.6571 -7.90563 93.1586
lradius 67.6589
lwrist 32.9499
lhand -28.2173 9.96308
lfingers 7.12502
lthumb -1.59574 39.9369
rfemur -93.6821 -16.5883 16.0905
rtibia 110.855
rfoot -32.8304 -12.9694
rtoes -4.10403
lfemur -81.6413 -5.31434 -30.3315
ltibia 113.074
lfoot -38.193 16.7857
ltoes -13.9308
496
root 8.57372 11.6523 -1.53365 22.7643 24.4276 7.47213
lowerback 44.0602 -4.00219 12.9558
upperback 16.9843 1.12506 1.83902
thorax -1.04126 1.46685 -4.89991
lowerneck -17.7906 -9.69016 -5.95269
upperneck -12.236 -11.8335 3.79498
head -0.452784 -5.75373 1.56665
rclavicle -2.54444e-014 3.06128e-014
rhumerus 56.1132 -3.91296 -35.4655
rradius 40.262
rwrist -0.00391139
rhand -39.5943 42.6394
rfingers 7.12502
rthumb -12.5767 13.0379
lclavicle -2.54444e-014 3.06128e-014
lhumerus -19.7112 -8.24402 92.6332
lradius 67.3808
lwrist 32.9081
lhand -28.3317 9.70663
lfingers 7.12502
lthumb -1.70627 39.6796
rfemur -93.0989 -16.3113 15.8251
rtibia 110.158
rfoot -32.7193 -12.7261
rtoes -2.92551
lfemur -81.0666 -5.11768 -30.469
ltibia 112.34
lfoot -38.2582 16.6625
ltoes -12.9714
497
root 8.58888 11.7346 -1.53418 22.7889 24.3379 7.10754
lowerback 43.9607 -4.07339 13.3811
upperback 16.5263 1.17419 1.55334
thorax -1.49388 1.47504 -5.44126
lowerneck -17.3813 -9.54107 -5.36415
upperneck -12.2122 -11.7659 3.73359
head -0.547058 -5.74722 1.47587
rclavicle 9.54166e-015 -2.74323e-014
rhumerus 55.5923 -3.65957 -35.7322
rradius 40.7509
rwrist -0.173301
rhand -39.7307 43.2967
rfingers 7.12502
rthumb -12.7081 13.7034
lclavicle 9.54166e-015 -2.74323e-014
lhumerus -20.2555 -8.59044 92.219
lradius 67.2161
lwrist 32.7892
lhand -28.2336 9.68963
lfingers 7.12502
lthumb -1.61148 39.6633
rfemur -92.6741 -15.8917 15.9792
rtibia 109.357
rfoot -32.5576 -12.8796
rtoes -2.84112
lfemur -80.8799 -4.84473 -30.2359
ltibia 111.598
lfoot -37.6291 17.012
ltoes -14.2146
